<svg width="48" height="48" viewBox="0 0 48 48" fill="none" xmlns="http://www.w3.org/2000/svg">
                            <rect width="48" height="48" rx="24" fill="#A4A4A4"></rect>
                            <path fill-rule="evenodd" clip-rule="evenodd" d="M37.7142 33.7143V34.9714C37.7142 36.4572 36.4571 37.7143 34.9714 37.7143H13.0285C11.5428 37.7143 10.2856 36.4572 10.2856 34.9714V33.7143C10.2856 30.4 14.1714 28.3429 17.8285 26.7429L18.1714 26.5714C18.4571 26.4571 18.7428 26.4571 19.0285 26.6286C20.5142 27.6 22.1714 28.1143 23.9428 28.1143C25.7142 28.1143 27.4285 27.5429 28.8571 26.6286C29.1428 26.4571 29.4285 26.4571 29.7142 26.5714L30.0571 26.7429C33.8285 28.3429 37.7142 30.3429 37.7142 33.7143ZM24 10.2856C27.7714 10.2856 30.8 13.6571 30.8 17.8285C30.8 22 27.7714 25.3714 24 25.3714C20.2285 25.3714 17.2 22 17.2 17.8285C17.2 13.6571 20.2285 10.2856 24 10.2856Z" fill="white"></path>
                        </svg>