<svg width="48" height="48" viewBox="0 0 48 48" fill="none" xmlns="http://www.w3.org/2000/svg">
<path d="M9 13V13C9 12.07 9 11.605 9.10222 11.2235C9.37962 10.1883 10.1883 9.37962 11.2235 9.10222C11.605 9 12.07 9 13 9L36 9C36.4714 9 36.7071 9 36.8536 9.14645C37 9.29289 37 9.5286 37 10V11C37 13.8284 37 15.2426 36.1213 16.1213C35.2426 17 33.8284 17 31 17H30M9 13V13C9 13.93 9 14.395 9.10222 14.7765C9.37962 15.8117 10.1883 16.6204 11.2235 16.8978C11.605 17 12.07 17 13 17L37 17C37.9428 17 38.4142 17 38.7071 17.2929C39 17.5858 39 18.0572 39 19V25M9 13L9 35C9 36.8856 9 37.8284 9.58579 38.4142C10.1716 39 11.1144 39 13 39L37 39C37.9428 39 38.4142 39 38.7071 38.7071C39 38.4142 39 37.9428 39 37V33M39 33H33C32.0572 33 31.5858 33 31.2929 32.7071C31 32.4142 31 31.9428 31 31V27C31 26.0572 31 25.5858 31.2929 25.2929C31.5858 25 32.0572 25 33 25H39M39 33V25" stroke="black" stroke-width="2"/>
</svg>
